<svg id="svg70685" xmlns="http://www.w3.org/2000/svg" viewBox="0 0 565.95 561.39"><defs><style>.cls-1{fill:#fd0;}.cls-2{fill:#fff;}.cls-3{fill:#ffde00;}.cls-4{fill:#221f1f;}.cls-5{fill:#221e1f;}</style></defs><title>Nikon</title><g id="layer1"><g id="g70727"><path id="path70100" class="cls-1" d="M0,0H566V561.39H0Z" transform="translate(0 0)"/><path id="path70118" class="cls-2" d="M85.9,458.24C286.44,394,446.4,333.11,443.36,324.66c-2.87-10.15-167.91,35.51-368.28,99.76C49.21,432.88,24.18,439.64,0,448.1v37.2c27.56-8.46,56.31-18.6,85.9-27.06" transform="translate(0 0)"/><path id="path70128" class="cls-2" d="M187.69,366.93C344.27,311.13,468.89,258.71,466,250.26c-3-8.46-132.57,30.43-289.32,86.23C109.4,360.17,47.85,383.84,0,402.44V429.5c50.73-15.22,116.34-37.21,187.69-62.57" transform="translate(0 0)"/><path id="path70138" class="cls-2" d="M235.38,294.22C381.47,238.42,497.47,186,494.43,177.55c-3.05-6.77-123.95,32.12-270,87.93C128,302.68,44.64,338.19,0,360.17v16.91c46.5-13.53,134.94-44,235.38-82.86" transform="translate(0 0)"/><path id="path70148" class="cls-2" d="M515.23,111.6c-3.22-8.45-121.41,35.51-264.13,94.69C119.38,262.09,13,312.82,0,326.35v5.07c13.53,1.69,127.16-38.89,262.94-96.38C405.48,174.17,518.61,118.36,515.23,111.6" transform="translate(0 0)"/><path id="path70158" class="cls-2" d="M282.89,148.8C142.71,214.75,31.45,272.24,34.49,279s119.38-40.58,259.73-106.53S545.66,47.35,542.62,42.27c-3-6.76-119.38,40.59-259.73,106.53" transform="translate(0 0)"/><path id="path70168" class="cls-2" d="M317.05,89.62C186.68,155.57,83.53,213.06,86.74,219.82c3.39,6.76,111.61-40.58,242-106.53C422.9,66,502.88,22,538.73,0H509C464.5,18.6,394.66,50.73,317.05,89.62" transform="translate(0 0)"/><path id="path70178" class="cls-2" d="M347,37.2C209.34,111.6,100.1,175.86,103,180.93c2.7,5.07,116.5-50.73,254.14-125.13C393.48,35.51,427.8,16.91,458.58,0H416.64C394.49,11.84,371.16,23.67,347,37.2" transform="translate(0 0)"/><path id="path70188" class="cls-2" d="M217.45,67.64C219.31,71,267.17,42.27,332.61,0H308.09C253,37.2,215.93,64.26,217.45,67.64" transform="translate(0 0)"/><path id="path70198" class="cls-2" d="M165.37,120.06C167.74,123.44,266,71,388.07,0H354.25C244.85,64.26,163.34,115,165.37,120.06" transform="translate(0 0)"/><g id="g70716"><path id="path70108" class="cls-3" d="M80.32,527.57C268.86,470.08,418.84,416,415.46,404.13S256.34,427.8,67.81,485.3c-23.34,6.76-46,13.52-67.81,20.29v44c25.87-6.76,52.76-15.22,80.32-22" transform="translate(0 0)"/><path id="path70202" class="cls-4" d="M163.68,405.82,132.74,544.48H97.23l-26-67.64L56.31,544.48H18.6L48.87,405.82H86.58l25,67.64,13.87-67.64h38.21" transform="translate(0 0)"/><path id="path70206" class="cls-5" d="M273.25,405.82,258.2,478.53,289.32,443H327.7l-34.83,45.66,12.85,55.8H271.06l-16.24-50.73c-3.55,13.53-8.79,35.51-12.34,50.73H206l30.44-138.66h36.86" transform="translate(0 0)"/><path id="path70210" class="cls-5" d="M539.57,448.1c9.14,11.83,2.37,27,0,37.2l-14.2,59.18H488.68l14-64.26c2-10.14-19.61-8.45-23.67,0l-13.36,64.26h-37l21.64-103.15h37s-3.21,8.46-.84,11.84c13.53-11.84,39.06-23.67,53.09-5.07" transform="translate(0 0)"/><path id="path70214" class="cls-5" d="M188.71,544.48h-37L174,441.33h37L188.71,544.48" transform="translate(0 0)"/><path id="path70218" class="cls-5" d="M197.67,436.26c12,0,22.15-8.46,21.64-18.6-.67-10.15-7.94-16.91-21.64-16.91-11.84,1.69-21,8.45-21.48,16.91-.5,11.84,4.4,16.91,21.48,18.6" transform="translate(0 0)"/><path id="path70222" class="cls-5" d="M422.06,458.24c11,16.91,4.9,40.58-3.05,57.49-9.81,20.29-31.79,33.82-54.78,32.13-16.41,1.69-37.21-3.38-46.34-20.29-11.49-22-1.86-45.66,7.95-64.26,16.4-22,42.61-27.05,68.82-23.67C405,443,416,448.1,422.06,458.24Zm-46.34,54.11s4.57-13.53,5.75-18.6c1.19-6.76,1.69-16.91,1.69-16.91,0-5.07-2.19-10.14-7.44-10.14-4.56,0-9,3.38-11.49,8.45,0,0-4.4,13.53-5.58,18.6a139.07,139.07,0,0,0-1.7,16.91c0,5.07,2.2,8.45,7.44,8.45,4.4,0,10.32-3.38,11.33-6.76" transform="translate(0 0)"/></g></g></g></svg>